<svg width="1201" height="1046" viewBox="0 0 1201 1046" fill="none" xmlns="http://www.w3.org/2000/svg">
<path fill-rule="evenodd" clip-rule="evenodd" d="M798.553 517.77C810.412 514.058 823.035 520.662 826.746 532.521C828.375 537.723 830.883 544.074 833.839 551.557C847.913 587.186 872.129 648.491 859.763 733.73C857.979 746.027 846.563 754.55 834.266 752.766C821.968 750.982 813.445 739.567 815.229 727.269C825.686 655.193 806.91 606.895 792.843 570.709C789.373 561.782 786.189 553.591 783.801 545.963C780.089 534.104 786.694 521.481 798.553 517.77Z" fill="black"/>
<path d="M793.926 764.869C798.349 745.262 813.138 746.99 813.576 747.026C805.24 743.793 801.467 738.652 799.831 733.965C797.943 728.509 798.834 722.561 801.519 717.413C801.519 717.413 801.625 717.265 801.737 717.056C803.16 714.644 811.897 701.658 831.81 699.621C845.814 698.197 859.991 702.434 870.86 711.332C883.473 721.649 896.709 741.376 887.434 776.561C886.303 780.805 884.18 784.845 880.776 787.595C875.386 791.931 868.125 793.308 861.502 790.307C857.07 801.865 841.484 805.312 832.36 796.244C829.795 793.697 828.389 790.838 827.592 788.621C824.459 790.364 817.216 793.458 808.494 791.098C808.278 791.049 808.093 791.003 807.879 790.923C806.955 790.661 806.005 790.335 805.031 789.913C799.009 787.272 795.984 782.629 794.485 778.577C792.889 774.174 792.867 769.399 793.929 764.838L793.926 764.869Z" fill="#755FFF"/>
<path d="M793.926 764.869C798.349 745.262 813.138 746.99 813.576 747.026C805.24 743.793 801.467 738.652 799.831 733.965C797.943 728.509 798.834 722.561 801.519 717.413C801.519 717.413 801.625 717.265 801.737 717.056C803.16 714.644 811.897 701.658 831.81 699.621C845.814 698.197 859.991 702.434 870.86 711.332C883.473 721.649 896.709 741.376 887.434 776.561C886.303 780.805 884.18 784.845 880.776 787.595C875.386 791.931 868.125 793.308 861.502 790.307C857.07 801.865 841.484 805.312 832.36 796.244C829.795 793.697 828.389 790.838 827.592 788.621C824.459 790.364 817.216 793.458 808.494 791.098C808.278 791.049 808.093 791.003 807.879 790.923C806.955 790.661 806.005 790.335 805.031 789.913C799.009 787.272 795.984 782.629 794.485 778.577C792.889 774.174 792.867 769.399 793.929 764.838L793.926 764.869Z" fill="url(#paint0_linear_55_31)" fill-opacity="0.8"/>
<path fill-rule="evenodd" clip-rule="evenodd" d="M852.892 709.115C861.533 712.287 870.318 717.041 876.688 723.791C882.637 730.095 885.22 739.673 885.73 749.783C886.236 759.795 884.666 769.563 883.09 775.386L883.088 775.394L883.086 775.402C882.116 779.04 880.392 782.119 877.952 784.092C874.708 786.699 870.726 787.862 866.829 787.251C868.647 778.564 870.736 763.638 869.139 750.618C868.837 748.151 866.592 746.396 864.125 746.699C861.658 747.001 859.904 749.246 860.206 751.713C861.885 765.407 858.963 782.066 857.214 788.916C853.847 797.219 842.323 799.802 835.533 793.053L835.531 793.051C834.336 791.865 833.459 790.575 832.809 789.34C837.435 782.984 842.94 770.249 840.158 753.983C839.739 751.534 837.413 749.887 834.963 750.307C832.514 750.726 830.868 753.051 831.287 755.501C833.822 770.321 827.98 781.217 824.767 785.028C821.869 786.509 816.254 788.536 809.67 786.754L809.576 786.729L809.482 786.708C809.446 786.7 809.422 786.694 809.406 786.69L809.28 786.643L809.107 786.594C808.352 786.38 807.596 786.119 806.829 785.788C802.229 783.768 799.911 780.266 798.711 777.03C797.474 773.607 797.406 769.747 798.312 765.858L798.31 765.858L798.316 765.859C800.247 757.299 804.21 754.035 807.153 752.658C807.632 752.433 808.102 752.251 808.556 752.102C808.147 754.129 807.454 756.461 806.326 758.649C805.187 760.858 806.055 763.572 808.264 764.711C810.473 765.85 813.187 764.982 814.326 762.773C817.3 757.003 818.059 750.768 818.082 747.589C818.596 745.555 819.122 742.611 819.267 739.483C819.423 736.116 819.174 731.911 817.46 728.391C816.372 726.157 813.679 725.227 811.444 726.315C809.21 727.403 808.281 730.097 809.368 732.331C810.096 733.825 810.409 736.22 810.277 739.065C810.258 739.462 810.232 739.856 810.199 740.244C806.66 737.82 804.952 734.976 804.082 732.488C802.704 728.501 803.253 723.925 805.41 719.686C805.479 719.576 805.561 719.44 805.647 719.284C806.819 717.331 814.423 706.087 831.857 704.142C836.609 704.572 844.518 706.041 852.892 709.115ZM801.999 745.191C798.755 742.189 796.747 738.783 795.583 735.448L795.579 735.437C793.203 728.574 794.399 721.333 797.529 715.332L797.68 715.042L797.797 714.879L797.811 714.854L797.862 714.768C799.657 711.727 809.442 697.385 831.352 695.144L831.762 695.102L832.173 695.136C837.673 695.581 846.599 697.217 855.994 700.666C865.368 704.108 875.56 709.482 883.234 717.614C891.329 726.193 894.163 738.334 894.719 749.329C895.278 760.416 893.564 771.132 891.78 777.728C890.487 782.575 887.968 787.57 883.605 791.095L883.597 791.101C878.098 795.525 870.851 797.508 863.741 795.812C856.449 807.217 839.501 809.685 829.189 799.437M801.999 745.191C796.812 748.08 791.852 753.681 789.551 763.818L789.546 763.817C788.328 769.047 788.305 774.731 790.255 780.111L790.26 780.124L790.265 780.138C792.063 785 795.793 790.776 803.224 794.034L803.233 794.038L803.242 794.042C804.368 794.53 805.459 794.908 806.506 795.211C806.866 795.335 807.176 795.412 807.41 795.466C814.676 797.407 821.031 796.157 825.41 794.548C826.355 796.162 827.584 797.843 829.188 799.436" fill="black"/>
<path fill-rule="evenodd" clip-rule="evenodd" d="M670.97 640.39C659.588 645.375 654.402 658.644 659.387 670.027C668.527 690.895 682.357 725.844 693.856 762.208C705.572 799.259 713.997 835.143 713.997 859C713.997 911.881 704.021 962.373 699.26 980.191C696.051 992.196 703.183 1004.53 715.188 1007.74C727.193 1010.95 739.526 1003.81 742.734 991.809C748.306 970.96 758.997 916.518 758.997 859C758.997 827.657 748.588 786.041 736.762 748.641C724.72 710.556 710.3 674.105 700.607 651.973C695.621 640.59 682.353 635.405 670.97 640.39Z" fill="black"/>
<path d="M766.717 943H698.688C695.31 943 692.296 945.121 691.157 948.301L661.588 1030.81C659.721 1036.02 663.583 1041.51 669.119 1041.51H815.97C819.942 1041.51 823.387 1038.58 823.482 1034.61C824.054 1010.72 807.594 996.004 773.798 993.548C768.518 993.164 764.663 988.132 766.086 983.032L774.422 953.15C775.845 948.05 772.011 943 766.717 943Z" fill="#755FFF"/>
<path d="M766.717 943H698.688C695.31 943 692.296 945.121 691.157 948.301L661.588 1030.81C659.721 1036.02 663.583 1041.51 669.119 1041.51H815.97C819.942 1041.51 823.387 1038.58 823.482 1034.61C824.054 1010.72 807.594 996.004 773.798 993.548C768.518 993.164 764.663 988.132 766.086 983.032L774.422 953.15C775.845 948.05 772.011 943 766.717 943Z" fill="url(#paint1_linear_55_31)" fill-opacity="0.8"/>
<path fill-rule="evenodd" clip-rule="evenodd" d="M686.922 946.783C688.702 941.815 693.411 938.5 698.689 938.5H766.718C774.99 938.5 780.981 946.391 778.758 954.359L769.153 988.789C787.23 989.459 801.506 993.287 811.543 1000.37C822.921 1008.4 828.328 1020.25 827.982 1034.72C827.821 1041.48 822.021 1046.01 815.971 1046.01H669.12C660.47 1046.01 654.435 1037.43 657.353 1029.29L686.922 946.783ZM759.839 988.682L770.089 951.941C770.712 949.709 769.034 947.5 766.718 947.5H698.689C697.211 947.5 695.893 948.428 695.394 949.819L665.826 1032.32C665.009 1034.6 666.698 1037.01 669.12 1037.01H815.971C817.865 1037.01 818.957 1035.68 818.985 1034.5C819.267 1022.7 815.018 1013.84 806.353 1007.72C797.416 1001.42 783.281 997.682 763.255 997.682H737.997C735.512 997.682 733.497 995.667 733.497 993.182C733.497 990.697 735.512 988.682 737.997 988.682H759.839Z" fill="black"/>
<path fill-rule="evenodd" clip-rule="evenodd" d="M562.089 897.644C562.483 898.23 563.343 898.234 563.743 897.652L1034.57 212.266C1035.87 210.366 1034.64 207.766 1032.34 207.578L467.279 161.301C460.791 160.769 454.26 161.133 447.87 162.381L116.436 227.133C114.33 227.545 113.324 229.97 114.521 231.751L562.089 897.644Z" fill="#755FFF"/>
<path fill-rule="evenodd" clip-rule="evenodd" d="M576.107 906.146L1046.93 220.759C1054.76 209.361 1047.35 193.756 1033.57 192.628L468.503 146.351C460.644 145.707 452.733 146.148 444.994 147.66L113.56 212.412C100.923 214.88 94.8894 229.432 102.072 240.119L549.639 906.012C555.941 915.387 569.711 915.457 576.107 906.146ZM562.089 897.644C562.482 898.23 563.343 898.234 563.743 897.652L1034.57 212.266C1035.87 210.366 1034.64 207.766 1032.34 207.578L467.279 161.301C460.791 160.769 454.26 161.133 447.87 162.381L116.436 227.133C114.33 227.545 113.324 229.97 114.521 231.751L562.089 897.644Z" fill="black"/>
<path d="M1037.5 208L563 899.5L457.5 159L1037.5 208Z" fill="#755FFF"/>
<path d="M1037.5 208L563 899.5L457.5 159L1037.5 208Z" fill="url(#paint2_linear_55_31)" fill-opacity="0.8"/>
<path d="M112 228L457.5 160.5L563 899L112 228Z" fill="#755FFF"/>
<path d="M112 228L457.5 160.5L563 899L112 228Z" fill="url(#paint3_linear_55_31)" fill-opacity="0.8"/>
<path fill-rule="evenodd" clip-rule="evenodd" d="M461.716 154.582L103.693 224.528L558.335 909.266L567.451 905.803L461.716 154.582ZM457.5 160.5L562.5 906.5L112 228L457.5 160.5Z" fill="black"/>
<path fill-rule="evenodd" clip-rule="evenodd" d="M430.181 512.965C423.258 502.645 409.28 499.892 398.961 506.815C364.942 529.637 322.717 559.344 297.957 595.838C285.245 614.575 276.309 636.239 276.151 660.53C275.992 685.007 284.764 709.595 302.97 733.965C310.407 743.92 324.506 745.962 334.462 738.525C344.417 731.088 346.458 716.988 339.021 707.033C325.477 688.903 321.067 673.649 321.15 660.822C321.235 647.81 325.964 634.709 335.195 621.103C354.322 592.912 389.098 567.62 424.031 544.185C434.35 537.262 437.103 523.284 430.181 512.965Z" fill="black"/>
<path d="M382.604 719.018C366.535 706.945 356.387 717.84 356.076 718.151C360.333 710.288 359.878 703.928 358.088 699.298C355.993 693.917 351.462 689.963 346.082 687.779C346.082 687.779 345.905 687.736 345.685 687.649C343.038 686.733 327.97 682.498 311.48 693.844C299.887 701.83 291.831 714.24 289.312 728.059C286.386 744.089 289.078 767.692 318.934 788.492C322.545 790.993 326.779 792.696 331.153 792.586C338.069 792.398 344.493 788.745 347.595 782.169C358.458 788.103 372.566 780.635 373.643 767.817C373.948 764.214 373.167 761.125 372.339 758.92C375.854 758.219 383.377 755.885 388.493 748.438C388.627 748.26 388.738 748.105 388.849 747.906C389.384 747.108 389.896 746.244 390.364 745.292C393.242 739.38 392.54 733.882 391.057 729.824C389.421 725.436 386.346 721.784 382.582 718.996L382.604 719.018Z" fill="#755FFF"/>
<path d="M382.604 719.018C366.535 706.945 356.387 717.84 356.076 718.151C360.333 710.288 359.878 703.928 358.088 699.298C355.993 693.917 351.462 689.963 346.082 687.779C346.082 687.779 345.905 687.736 345.685 687.649C343.038 686.733 327.97 682.498 311.48 693.844C299.887 701.83 291.831 714.24 289.312 728.059C286.386 744.089 289.078 767.692 318.934 788.492C322.545 790.993 326.779 792.696 331.153 792.586C338.069 792.398 344.493 788.745 347.595 782.169C358.458 788.103 372.566 780.635 373.643 767.817C373.948 764.214 373.167 761.125 372.339 758.92C375.854 758.219 383.377 755.885 388.493 748.438C388.627 748.26 388.738 748.105 388.849 747.906C389.384 747.108 389.896 746.244 390.364 745.292C393.242 739.38 392.54 733.882 391.057 729.824C389.421 725.436 386.346 721.784 382.582 718.996L382.604 719.018Z" fill="url(#paint4_linear_55_31)" fill-opacity="0.8"/>
<path fill-rule="evenodd" clip-rule="evenodd" d="M301.566 714.733C297.037 722.746 293.423 732.057 292.942 741.327C292.493 749.983 296.729 758.953 302.888 766.986C308.988 774.942 316.51 781.367 321.482 784.783L321.489 784.788L321.497 784.793C324.592 786.936 327.9 788.165 331.037 788.088C335.196 787.974 338.984 786.281 341.557 783.29C334.545 777.849 323.286 767.831 316.069 756.876C314.702 754.801 315.276 752.01 317.351 750.643C319.426 749.275 322.217 749.849 323.585 751.925C331.175 763.446 344.191 774.245 349.961 778.331C357.904 782.476 368.357 776.981 369.159 767.44L369.159 767.438C369.301 765.76 369.135 764.209 368.829 762.847C361.188 761.001 348.745 754.864 340.33 740.669C339.062 738.531 339.768 735.771 341.906 734.503C344.044 733.236 346.804 733.942 348.072 736.079C355.739 749.013 367.247 753.531 372.164 754.353C375.331 753.604 380.922 751.511 384.784 745.89L384.839 745.81L384.897 745.733C384.919 745.703 384.934 745.684 384.944 745.67L385.009 745.553L385.11 745.403C385.546 744.752 385.953 744.062 386.322 743.314C388.519 738.795 388.017 734.626 386.835 731.383C385.561 727.974 383.112 724.989 379.904 722.613L379.905 722.611L379.9 722.616C372.885 717.345 367.752 717.424 364.617 718.281C364.107 718.421 363.631 718.586 363.189 718.767C364.813 720.046 366.851 721.374 369.128 722.311C371.426 723.256 372.523 725.886 371.578 728.185C370.632 730.483 368.003 731.58 365.704 730.634C359.701 728.165 355.084 723.905 353.008 721.499C351.298 720.282 348.991 718.379 346.854 716.09C344.554 713.626 342.021 710.261 341.047 706.469C340.429 704.062 341.879 701.61 344.286 700.991C346.693 700.373 349.145 701.823 349.764 704.23C350.177 705.839 351.49 707.867 353.433 709.949C353.705 710.24 353.98 710.522 354.256 710.796C355.382 706.658 354.842 703.385 353.893 700.925C352.361 696.995 348.979 693.864 344.589 692.031C344.466 691.993 344.315 691.942 344.148 691.879C341.99 691.15 328.914 687.509 314.371 697.319C311.029 700.725 305.955 706.966 301.566 714.733ZM363.708 709.255C364.235 704.866 363.559 700.971 362.286 697.676L362.282 697.665C359.646 690.897 354.045 686.155 347.774 683.61L347.471 683.487L347.276 683.439L347.249 683.428L347.155 683.396C343.818 682.242 327.073 677.653 308.929 690.137L308.589 690.37L308.298 690.662C304.396 694.564 298.655 701.592 293.731 710.305C288.818 718.998 284.534 729.694 283.954 740.86C283.343 752.639 289.048 763.726 295.746 772.462C302.501 781.272 310.747 788.326 316.379 792.196C320.503 795.051 325.658 797.225 331.266 797.085L331.275 797.085C338.33 796.893 345.136 793.711 349.455 787.813C362.397 791.779 376.908 782.682 378.127 768.196M363.708 709.255C369.532 708.096 376.938 709.151 385.257 715.383L385.26 715.38C389.575 718.576 393.275 722.891 395.273 728.253L395.279 728.266L395.284 728.28C397.063 733.149 397.962 739.966 394.41 747.262L394.406 747.27L394.402 747.279C393.86 748.38 393.274 749.375 392.673 750.283C392.478 750.611 392.292 750.871 392.149 751.064C387.87 757.249 382.218 760.412 377.84 762.023C378.165 763.864 378.318 765.942 378.128 768.194" fill="black"/>
<path fill-rule="evenodd" clip-rule="evenodd" d="M469.284 640.39C480.666 645.375 485.852 658.644 480.867 670.027C471.727 690.895 457.896 725.844 446.397 762.208C434.682 799.259 426.257 835.143 426.257 859C426.257 911.881 436.232 962.373 440.994 980.191C444.202 992.196 437.071 1004.53 425.066 1007.74C413.061 1010.95 400.728 1003.81 397.52 991.809C391.948 970.96 381.257 916.518 381.257 859C381.257 827.657 391.665 786.041 403.491 748.641C415.534 710.556 429.954 674.105 439.647 651.973C444.632 640.59 457.901 635.405 469.284 640.39Z" fill="black"/>
<path d="M373.537 943H441.566C444.944 943 447.958 945.121 449.097 948.301L478.666 1030.81C480.533 1036.02 476.671 1041.51 471.135 1041.51H324.284C320.312 1041.51 316.866 1038.58 316.771 1034.61C316.2 1010.72 332.66 996.004 366.455 993.548C371.736 993.164 375.591 988.132 374.168 983.032L365.831 953.15C364.409 948.05 368.243 943 373.537 943Z" fill="#755FFF"/>
<path d="M373.537 943H441.566C444.944 943 447.958 945.121 449.097 948.301L478.666 1030.81C480.533 1036.02 476.671 1041.51 471.135 1041.51H324.284C320.312 1041.51 316.866 1038.58 316.771 1034.61C316.2 1010.72 332.66 996.004 366.455 993.548C371.736 993.164 375.591 988.132 374.168 983.032L365.831 953.15C364.409 948.05 368.243 943 373.537 943Z" fill="url(#paint5_linear_55_31)" fill-opacity="0.8"/>
<path fill-rule="evenodd" clip-rule="evenodd" d="M453.332 946.783C451.552 941.815 446.843 938.5 441.565 938.5H373.536C365.264 938.5 359.273 946.391 361.496 954.359L371.101 988.789C353.024 989.459 338.748 993.287 328.711 1000.37C317.333 1008.4 311.926 1020.25 312.271 1034.72C312.433 1041.48 318.232 1046.01 324.283 1046.01H471.133C479.784 1046.01 485.819 1037.43 482.9 1029.29L453.332 946.783ZM380.415 988.682L370.165 951.941C369.542 949.709 371.22 947.5 373.536 947.5H441.565C443.043 947.5 444.361 948.428 444.86 949.819L474.428 1032.32C475.245 1034.6 473.555 1037.01 471.133 1037.01H324.283C322.389 1037.01 321.297 1035.68 321.269 1034.5C320.987 1022.7 325.236 1013.84 333.901 1007.72C342.838 1001.42 356.973 997.682 376.999 997.682H402.256C404.742 997.682 406.756 995.667 406.756 993.182C406.756 990.697 404.742 988.682 402.256 988.682H380.415Z" fill="black"/>
<path fill-rule="evenodd" clip-rule="evenodd" d="M675.272 257.281C674.407 259.611 671.817 260.799 669.487 259.934C664.107 257.937 659.274 258.808 655.228 260.824C651.072 262.896 647.918 266.114 646.382 268.307C644.956 270.342 642.149 270.836 640.114 269.41C638.079 267.983 637.585 265.177 639.011 263.142C641.281 259.903 645.53 255.602 651.214 252.769C657.007 249.882 664.449 248.464 672.619 251.497C674.949 252.361 676.137 254.951 675.272 257.281Z" fill="black"/>
<path fill-rule="evenodd" clip-rule="evenodd" d="M704.973 315.506L701.531 320.42L704.783 325.462L712.281 320.626L704.973 315.506ZM690.731 320.291C689.049 321.393 687.196 322.612 685.295 323.871C678.689 328.248 670.955 333.468 668.22 335.771C665.685 337.905 665.36 341.69 667.495 344.225C669.629 346.76 673.414 347.084 675.949 344.95C678.018 343.208 685.007 338.457 691.923 333.875C695.286 331.647 698.503 329.543 700.88 327.995C702.068 327.221 703.045 326.587 703.724 326.147C704.064 325.927 704.33 325.755 704.51 325.639L704.783 325.462C704.783 325.462 704.783 325.462 701.531 320.42C704.973 315.506 704.974 315.506 704.973 315.506L704.687 315.306C704.503 315.177 704.233 314.99 703.89 314.752C703.203 314.275 702.217 313.594 701.019 312.773C698.624 311.134 695.368 308.929 691.937 306.677C688.517 304.433 684.871 302.108 681.709 300.244C680.132 299.315 678.618 298.466 677.279 297.789C676.06 297.173 674.583 296.489 673.217 296.148C670.002 295.346 666.745 297.303 665.943 300.518C665.141 303.733 667.098 306.99 670.313 307.792C670.308 307.79 670.313 307.792 670.328 307.798C670.42 307.832 670.891 308.006 671.867 308.499C672.884 309.014 674.153 309.72 675.616 310.582C678.535 312.303 681.997 314.507 685.353 316.71C687.236 317.945 689.069 319.169 690.731 320.291Z" fill="black"/>
<path fill-rule="evenodd" clip-rule="evenodd" d="M775.19 321.858L777.877 327.222L773.923 331.735L767.212 325.854L775.19 321.858ZM788.58 328.673C790.083 330.009 791.738 331.486 793.434 333.009C799.329 338.305 806.218 344.599 808.587 347.277C810.782 349.759 810.55 353.551 808.068 355.747C805.586 357.942 801.794 357.71 799.599 355.228C797.806 353.202 791.587 347.481 785.415 341.937C782.414 339.241 779.539 336.689 777.414 334.811C776.352 333.872 775.478 333.102 774.87 332.567C774.566 332.299 774.329 332.091 774.168 331.949L773.923 331.735C773.923 331.735 773.923 331.735 777.877 327.222C775.19 321.858 775.19 321.858 775.19 321.858L775.503 321.701C775.704 321.601 775.997 321.455 776.372 321.27C777.122 320.899 778.196 320.369 779.502 319.732C782.11 318.46 785.654 316.755 789.377 315.029C793.088 313.309 797.035 311.542 800.435 310.161C802.131 309.471 803.753 308.853 805.176 308.379C806.472 307.948 808.033 307.487 809.435 307.35C812.733 307.027 815.668 309.438 815.992 312.736C816.315 316.034 813.904 318.969 810.606 319.293C810.611 319.292 810.606 319.293 810.59 319.297C810.494 319.317 810.002 319.42 808.965 319.765C807.883 320.125 806.525 320.639 804.952 321.278C801.813 322.553 798.065 324.228 794.424 325.916C792.38 326.863 790.388 327.806 788.58 328.673Z" fill="black"/>
<path fill-rule="evenodd" clip-rule="evenodd" d="M806.854 265.281C807.718 267.611 810.308 268.799 812.638 267.934C818.018 265.937 822.852 266.808 826.897 268.824C831.053 270.896 834.207 274.114 835.744 276.307C837.17 278.342 839.976 278.836 842.011 277.41C844.046 275.983 844.54 273.177 843.114 271.142C840.844 267.903 836.595 263.602 830.912 260.769C825.118 257.882 817.677 256.464 809.506 259.497C807.176 260.361 805.989 262.951 806.854 265.281Z" fill="black"/>
<path fill-rule="evenodd" clip-rule="evenodd" d="M841.42 398.257C876.215 393.884 863.539 357.326 831.176 365.819C797.783 372.875 815.276 399.759 841.42 398.257Z" fill="#DED1FA"/>
<path fill-rule="evenodd" clip-rule="evenodd" d="M648.628 384.808C659.075 382.287 664.502 368.878 656.275 360.835C645.818 351.561 620.268 349.935 614.101 364.94C610.35 381.393 636.301 388.831 648.628 384.808Z" fill="#DED1FA"/>
<path d="M766.123 411.777C755.625 414.944 746.702 402.182 736.786 400.887C726.87 399.593 722.824 405.37 714.574 405.047C692.497 404.182 698.676 383.811 706.523 377.776C714.37 371.741 731.508 367.927 740.928 369.157C750.348 370.386 767.614 377.179 772.959 386.448C778.304 395.718 776.622 408.609 766.123 411.777Z" fill="#7C59EF"/>
<path fill-rule="evenodd" clip-rule="evenodd" d="M721.963 365.881C728.728 364.249 736.03 363.475 741.575 364.198C746.908 364.895 754.101 367.087 760.666 370.295C767.08 373.428 773.854 377.991 777.29 383.951C780.535 389.579 781.721 396.391 780.362 402.488C778.968 408.74 774.811 414.377 767.567 416.563C759.975 418.854 753.334 415.181 748.606 412.258C747.662 411.674 746.8 411.123 745.979 410.597C744.48 409.638 743.119 408.767 741.65 407.952C739.478 406.747 737.706 406.05 736.138 405.845C732.398 405.357 729.834 406.14 726.824 407.279C726.529 407.391 726.223 407.509 725.906 407.632C723.007 408.756 719.197 410.232 714.377 410.043C708.132 409.798 703.124 408.146 699.585 405.014C695.973 401.818 694.49 397.614 694.33 393.546C694.174 389.569 695.257 385.614 696.862 382.288C698.46 378.977 700.765 375.895 703.474 373.812C708.201 370.176 715.229 367.505 721.963 365.881ZM724.307 375.602C718.156 377.086 712.69 379.339 709.57 381.739C708.356 382.673 706.946 384.4 705.868 386.634C704.798 388.852 704.245 391.176 704.322 393.154C704.397 395.042 705.018 396.469 706.211 397.525C707.477 398.645 709.976 399.863 714.769 400.051C717.435 400.155 719.377 399.415 722.44 398.248C722.712 398.144 722.993 398.037 723.285 397.926C726.839 396.581 731.256 395.123 737.432 395.929C740.823 396.372 743.884 397.755 746.502 399.208C748.233 400.169 750.066 401.339 751.729 402.402C752.484 402.884 753.204 403.344 753.865 403.752C758.702 406.742 761.772 407.866 764.678 406.99C767.932 406.008 769.865 403.616 770.602 400.313C771.372 396.856 770.727 392.587 768.627 388.946C766.718 385.635 762.187 382.167 756.276 379.28C750.517 376.466 744.367 374.648 740.28 374.114C736.405 373.608 730.428 374.126 724.307 375.602Z" fill="black"/>
<path d="M866.875 363.384C878.778 367.821 884.316 363.841 887.402 355.561C890.488 347.281 883.342 336.972 871.439 332.535C859.537 328.098 830.187 335.834 846.585 341.947C862.983 348.059 854.973 358.947 866.875 363.384Z" fill="#4ABAFF"/>
<path fill-rule="evenodd" clip-rule="evenodd" d="M860.44 335.769C864.344 335.585 867.713 335.948 869.867 336.752C875.065 338.689 879.04 341.848 881.343 345.17C883.658 348.509 884.07 351.614 883.185 353.989C882.289 356.394 880.879 358.295 878.984 359.287C877.239 360.201 874.297 360.754 869.362 358.973C866.583 357.471 865.204 356.096 864.373 354.942C863.55 353.799 863.116 352.712 862.469 351.092C862.381 350.87 862.288 350.638 862.19 350.395C861.405 348.448 860.334 346.012 858.057 343.668C855.894 341.443 852.918 339.568 848.698 337.935C849.027 337.815 849.38 337.695 849.757 337.575C852.731 336.634 856.614 335.95 860.44 335.769ZM839.184 342.694C840.638 344.234 842.746 345.318 845.013 346.163C848.704 347.539 850.554 348.861 851.602 349.94C852.627 350.995 853.172 352.096 853.843 353.76C853.919 353.95 853.999 354.153 854.084 354.367C854.703 355.938 855.552 358.094 857.069 360.201C858.872 362.704 861.458 364.982 865.42 367.071L865.676 367.206L865.947 367.307C872.75 369.842 878.539 369.68 883.16 367.259C887.664 364.9 890.245 360.818 891.619 357.132C893.82 351.227 892.202 345.038 888.74 340.043C885.266 335.032 879.715 330.818 873.011 328.318C869.214 326.903 864.45 326.57 860.016 326.779C855.504 326.992 850.843 327.792 847.042 328.994C845.15 329.593 843.325 330.337 841.797 331.249C840.411 332.077 838.603 333.432 837.723 335.543C837.235 336.713 837.061 338.063 837.389 339.457C837.704 340.801 838.413 341.877 839.184 342.694Z" fill="black"/>
<path d="M949.077 466.63C954.127 478.285 960.834 479.52 968.942 476.006C977.05 472.493 979.529 460.196 974.478 448.541C969.428 436.885 943.511 421.089 950.469 437.146C957.427 453.203 944.026 454.975 949.077 466.63Z" fill="#4ABAFF"/>
<path fill-rule="evenodd" clip-rule="evenodd" d="M964.524 442.853C967.363 445.54 969.435 448.22 970.349 450.33C972.555 455.42 973.032 460.474 972.233 464.437C971.431 468.42 969.478 470.869 967.153 471.877C964.797 472.898 962.45 473.198 960.422 472.52C958.553 471.895 956.116 470.158 953.98 465.365C953.137 462.321 953.172 460.375 953.428 458.975C953.682 457.59 954.164 456.524 954.884 454.935C954.983 454.717 955.086 454.49 955.193 454.251C956.053 452.336 957.067 449.875 957.178 446.609C957.284 443.508 956.572 440.063 954.825 435.889C955.139 436.043 955.471 436.214 955.818 436.403C958.558 437.895 961.742 440.22 964.524 442.853ZM944.801 432.328C944.698 434.444 945.378 436.715 946.34 438.935C947.906 442.549 948.235 444.799 948.183 446.302C948.133 447.772 947.717 448.928 946.982 450.565C946.898 450.752 946.807 450.951 946.712 451.16C946.008 452.694 945.043 454.801 944.575 457.355C944.02 460.389 944.17 463.832 945.41 468.136L945.49 468.414L945.605 468.679C948.492 475.341 952.621 479.401 957.569 481.056C962.391 482.668 967.123 481.699 970.731 480.135C976.514 477.629 979.855 472.174 981.056 466.216C982.261 460.238 981.452 453.317 978.607 446.751C976.997 443.034 973.935 439.368 970.711 436.317C967.431 433.212 963.624 430.406 960.123 428.499C958.38 427.55 956.579 426.75 954.862 426.281C953.305 425.855 951.075 425.49 948.944 426.319C947.762 426.778 946.668 427.589 945.89 428.791C945.14 429.95 944.855 431.206 944.801 432.328Z" fill="black"/>
<path d="M921.854 406.764C932.837 413.144 938.967 410.155 943.406 402.514C947.844 394.873 942.538 383.506 931.554 377.126C920.57 370.746 890.337 373.422 905.469 382.212C920.601 391.002 910.87 400.383 921.854 406.764Z" fill="#4ABAFF"/>
<path fill-rule="evenodd" clip-rule="evenodd" d="M920.168 378.459C924.047 378.936 927.306 379.862 929.294 381.017C934.091 383.804 937.476 387.587 939.186 391.251C940.904 394.932 940.787 398.062 939.514 400.254C938.225 402.474 936.515 404.109 934.48 404.767C932.605 405.374 929.613 405.423 925.048 402.835C922.562 400.886 921.435 399.299 920.811 398.02C920.192 396.755 919.948 395.611 919.584 393.905C919.534 393.671 919.481 393.427 919.426 393.171C918.981 391.12 918.336 388.538 916.486 385.843C914.73 383.285 912.112 380.935 908.228 378.614C908.572 378.551 908.941 378.492 909.332 378.438C912.423 378.012 916.366 377.992 920.168 378.459ZM898.048 381.7C899.221 383.464 901.117 384.888 903.209 386.103C906.614 388.081 908.215 389.696 909.066 390.937C909.898 392.149 910.25 393.327 910.631 395.08C910.674 395.281 910.719 395.494 910.766 395.719C911.111 397.372 911.585 399.64 912.725 401.973C914.079 404.744 916.244 407.426 919.797 410.152L920.027 410.328L920.277 410.474C926.555 414.12 932.289 414.936 937.252 413.33C942.089 411.764 945.321 408.175 947.297 404.774C950.462 399.325 949.912 392.951 947.341 387.444C944.762 381.919 940.002 376.829 933.814 373.235C930.311 371.2 925.672 370.068 921.265 369.527C916.782 368.976 912.053 368.978 908.104 369.522C906.137 369.793 904.213 370.219 902.554 370.86C901.048 371.442 899.037 372.473 897.814 374.405C897.136 375.476 896.737 376.778 896.824 378.207C896.909 379.585 897.426 380.765 898.048 381.7Z" fill="black"/>
<path d="M620.914 349.179C609.011 353.616 603.474 349.636 600.387 341.356C597.301 333.076 604.448 322.767 616.35 318.331C628.253 313.894 657.602 321.63 641.204 327.742C624.806 333.855 632.816 344.743 620.914 349.179Z" fill="#4ABAFF"/>
<path fill-rule="evenodd" clip-rule="evenodd" d="M627.349 321.565C623.445 321.38 620.076 321.744 617.922 322.547C612.724 324.484 608.749 327.643 606.446 330.966C604.131 334.305 603.719 337.41 604.604 339.784C605.5 342.19 606.91 344.09 608.805 345.082C610.55 345.996 613.492 346.55 618.427 344.768C621.206 343.266 622.585 341.892 623.416 340.737C624.239 339.595 624.673 338.508 625.32 336.888C625.408 336.666 625.501 336.434 625.599 336.191C626.384 334.244 627.455 331.808 629.732 329.464C631.895 327.238 634.871 325.364 639.091 323.731C638.762 323.61 638.409 323.49 638.032 323.371C635.058 322.43 631.175 321.745 627.349 321.565ZM648.605 328.489C647.151 330.029 645.043 331.114 642.776 331.959C639.085 333.334 637.235 334.656 636.187 335.735C635.162 336.79 634.617 337.891 633.946 339.555C633.87 339.746 633.79 339.949 633.705 340.163C633.086 341.733 632.237 343.889 630.72 345.996C628.917 348.499 626.331 350.778 622.369 352.866L622.113 353.001L621.842 353.102C615.039 355.638 609.25 355.475 604.629 353.055C600.125 350.696 597.544 346.613 596.171 342.928C593.969 337.022 595.587 330.833 599.049 325.838C602.523 320.827 608.074 316.613 614.778 314.114C618.575 312.699 623.339 312.365 627.773 312.575C632.285 312.788 636.946 313.587 640.747 314.79C642.639 315.389 644.464 316.133 645.992 317.045C647.378 317.872 649.187 319.227 650.066 321.338C650.554 322.508 650.728 323.859 650.4 325.252C650.085 326.597 649.376 327.672 648.605 328.489Z" fill="black"/>
<path d="M538.712 452.426C533.662 464.081 526.955 465.315 518.847 461.802C510.739 458.288 508.26 445.992 513.311 434.336C518.361 422.681 544.278 406.884 537.32 422.942C530.362 438.999 543.763 440.77 538.712 452.426Z" fill="#4ABAFF"/>
<path fill-rule="evenodd" clip-rule="evenodd" d="M523.265 428.648C520.426 431.335 518.354 434.015 517.44 436.125C515.234 441.215 514.757 446.269 515.556 450.233C516.358 454.215 518.311 456.665 520.636 457.672C522.992 458.693 525.339 458.993 527.367 458.315C529.236 457.691 531.673 455.953 533.81 451.161C534.653 448.116 534.617 446.17 534.361 444.77C534.107 443.386 533.625 442.319 532.905 440.731C532.806 440.513 532.703 440.285 532.596 440.046C531.736 438.131 530.722 435.671 530.611 432.405C530.505 429.303 531.217 425.858 532.965 421.684C532.65 421.838 532.318 422.009 531.971 422.198C529.231 423.69 526.047 426.015 523.265 428.648ZM542.988 418.124C543.091 420.239 542.411 422.51 541.449 424.73C539.883 428.344 539.554 430.594 539.606 432.098C539.656 433.568 540.072 434.724 540.807 436.36C540.891 436.548 540.982 436.746 541.077 436.955C541.781 438.49 542.746 440.596 543.214 443.15C543.769 446.184 543.619 449.628 542.379 453.931L542.299 454.209L542.184 454.474C539.297 461.136 535.168 465.197 530.22 466.851C525.398 468.463 520.666 467.494 517.058 465.93C511.275 463.425 507.934 457.969 506.733 452.011C505.528 446.034 506.337 439.112 509.182 432.547C510.793 428.829 513.854 425.164 517.078 422.112C520.358 419.007 524.165 416.201 527.666 414.294C529.409 413.345 531.211 412.545 532.927 412.076C534.484 411.65 536.714 411.286 538.845 412.114C540.027 412.574 541.121 413.385 541.899 414.586C542.649 415.746 542.934 417.001 542.988 418.124Z" fill="black"/>
<path d="M565.935 392.559C554.952 398.939 548.822 395.95 544.383 388.309C539.945 380.668 545.251 369.302 556.235 362.921C567.219 356.541 597.452 359.217 582.32 368.007C567.188 376.797 576.919 386.179 565.935 392.559Z" fill="#4ABAFF"/>
<path fill-rule="evenodd" clip-rule="evenodd" d="M567.621 364.255C563.742 364.731 560.484 365.658 558.495 366.813C553.699 369.599 550.314 373.383 548.603 377.046C546.885 380.728 547.002 383.858 548.275 386.049C549.564 388.269 551.274 389.904 553.309 390.563C555.184 391.169 558.176 391.219 562.741 388.631C565.227 386.681 566.354 385.094 566.979 383.816C567.597 382.551 567.841 381.406 568.206 379.701C568.255 379.467 568.308 379.223 568.363 378.966C568.808 376.915 569.453 374.333 571.303 371.639C573.059 369.08 575.677 366.731 579.561 364.41C579.217 364.347 578.848 364.287 578.457 364.233C575.366 363.807 571.423 363.788 567.621 364.255ZM589.741 367.496C588.568 369.259 586.672 370.683 584.58 371.898C581.175 373.877 579.574 375.492 578.723 376.732C577.891 377.945 577.539 379.122 577.158 380.875C577.115 381.076 577.07 381.289 577.023 381.514C576.678 383.167 576.204 385.436 575.064 387.768C573.71 390.539 571.545 393.221 567.992 395.948L567.762 396.124L567.512 396.269C561.234 399.916 555.501 400.732 550.537 399.125C545.7 397.56 542.468 393.97 540.492 390.57C537.327 385.12 537.877 378.747 540.448 373.239C543.027 367.714 547.787 362.624 553.975 359.03C557.478 356.995 562.118 355.863 566.524 355.322C571.007 354.771 575.736 354.773 579.685 355.318C581.652 355.589 583.576 356.014 585.235 356.656C586.741 357.238 588.752 358.268 589.975 360.2C590.653 361.272 591.052 362.574 590.965 364.002C590.88 365.381 590.364 366.56 589.741 367.496Z" fill="black"/>
<defs>
<linearGradient id="paint0_linear_55_31" x1="836.367" y1="683.927" x2="784.633" y2="831.072" gradientUnits="userSpaceOnUse">
<stop stop-color="#DCD6FF"/>
<stop offset="0.547617" stop-color="#9968F6"/>
</linearGradient>
<linearGradient id="paint1_linear_55_31" x1="761.205" y1="923.659" x2="760.56" y2="1097.34" gradientUnits="userSpaceOnUse">
<stop stop-color="#9F8FFF"/>
<stop offset="0.547617" stop-color="#5514D0"/>
</linearGradient>
<linearGradient id="paint2_linear_55_31" x1="675.482" y1="13.6073" x2="309.306" y2="1119.11" gradientUnits="userSpaceOnUse">
<stop stop-color="#DCD6FF"/>
<stop offset="0.547617" stop-color="#9968F6"/>
</linearGradient>
<linearGradient id="paint3_linear_55_31" x1="281.5" y1="15.5" x2="294.838" y2="1317.48" gradientUnits="userSpaceOnUse">
<stop stop-color="#9F8FFF"/>
<stop offset="0.547617" stop-color="#5514D0"/>
</linearGradient>
<linearGradient id="paint4_linear_55_31" x1="297.842" y1="684.839" x2="432.564" y2="763.438" gradientUnits="userSpaceOnUse">
<stop stop-color="#DCD6FF"/>
<stop offset="0.547617" stop-color="#9968F6"/>
</linearGradient>
<linearGradient id="paint5_linear_55_31" x1="379.048" y1="923.659" x2="379.694" y2="1097.34" gradientUnits="userSpaceOnUse">
<stop stop-color="#9F8FFF"/>
<stop offset="0.547617" stop-color="#5514D0"/>
</linearGradient>
</defs>
</svg>
